. 
 
http://www.torrenting.com          :     Once & For all ;)


               www . Torrenting . Com 

(((((((((((((= Enjoy No RAR releases =))))))))))))))))))))


...................................NFO:....................................

.+-----------------------------------------------------------------------------+
+----------------------------------FUSiON-------------------------------------+
+-----------------------------------------------------------------------------+
+-----------------------------------------------------------------------------+
PLOT :------------------------------------------------------------------------+
+-----------------------------------------------------------------------------+

Marine biologist Skylar Shane hires an expat charter boat captain, Jack Bowman, 
to help her find prehistoric life form samples in the north Sumatran Sea. During 
the expedition, they run into some of Jack's 'friends', a gang of smugglers 
headquartered on a fishing platform in the middle of the sea. Tamal, an orphan 
sold into servitude on the fishing platform by his uncle, a 'Dukun' (sorcerer 
and master of black magic) shaman, begs Skylar to take him away. She empathizes 
with the boy, who reminds her of her lost daughter, Rebecca, and is determined 
to help him, not knowing what lurks beneath the dark inky water, waiting to 
surface. Ever since Tamal arrived, mysterious things begin to happen, until one 
by one the smugglers will be killed by the terrifying creature from the deep. 
In the middle of an eerie, violent storm, the animus inside Tamal grows stronger, 
calling for the ancient creature of his nightmares...

+-----------------------------------------------------------------------------+
Short Info :------------------------------------------------------------------+
+-----------------------------------------------------------------------------+

Genre:............: Horror 
Directed by.......: Brian Yuzna
Starring..........: Mohammad Aditya, Bambang B.S., Steven Baray, Francis Bosco
Release Name......: Amphibious.3D.2010.DVDRip.XViD-FURiES
Release Group.....: FURiES
Size..............: 1.08 GB
Video.............: 624x320 605 Kbps 25.000 fps
Audio.............: MP3 320 Kbps
Language:.........: English
Subtitles.........: None

+-----------------------------------------------------------------------------+
Full Info :-------------------------------------------------------------------+
+-----------------------------------------------------------------------------+
   General
      Complete name : Amphibious.3D.2010.DVDRip.XViD-FURiES.avi
      Format : AVI
      Format/Info : Audio Video Interleave
      Format profile : OpenDML
      File size : 1.08 GiB
      Overall bit rate : 738 Kbps
      Writing application : Lavf51.12.1
   Video
      Format : xvid
      Codec ID : xvid
      Duration : 3h 29mn
      Bit rate : 605 Kbps
      Width : 624 pixels
      Height : 320 pixels
      Display aspect ratio : 1.950
      Frame rate : 25.000 fps
      Resolution : 24 bits
      Bits/(Pixel*Frame) : 0.121
      Stream size : 908 MiB (82%)
   Audio #1
      ID : 1
      Format : MPEG Audio
      Format version : Version 1
      Format profile : Layer 3
      Codec ID : 55
      Codec ID/Hint : MP3
      Bit rate mode : Constant
      Bit rate : 320 Kbps
      Channel(s) : 2 channels
      Sampling rate : 44.1 KHz
      Resolution : 16 bits
      Stream size : 190 MiB (17%)
      Alignment : Aligned on interleaves
      Interleave, duration : 26 ms (0.65 video frame)
      Interleave, preload duration : 26 ms
      Writing library : LAME3.97
+-----------------------------------------------------------------------------+
IMDB : -----------------------------------------------------------------------+
+-----------------------------------------------------------------------------+
 
http://www.imdb.com/title/tt1540761/

+-----------------------------------------------------------------------------+
Screens :---------------------------------------------------------------------+
+-----------------------------------------------------------------------------+

[img]http://img718.imageshack.us/img718/976/amphibious.jpg[/img]
[img]http://img405.imageshack.us/img405/9677/amphibiouss.jpg[/img]
[img]http://img836.imageshack.us/img836/862/amphibiousss.jpg[/img]
[img]http://img88.imageshack.us/img88/2645/amphibioussss.jpg[/img]
[img]http://img714.imageshack.us/img714/3530/amphibiousssss.jpg[/img]

+-----------------------------------------------------------------------------+
Greetings and Respect :-------------------------------------------------------+
+-----------------------------------------------------------------------------+

ViSiON, CM8, BHRG, NODLABS, AMIABLE, THUGLiNE, NeDiVx, Larceny, 
PRESTiGE, HD4U, LOST, PSYCHD  ...

+-----------------------------------------------------------------------------+
+----------------------------------FUSiON-------------------------------------+
+-----------------------------------------------------------------------------+